<svg width="424" height="83" viewBox="0 0 424 83" fill="none" xmlns="http://www.w3.org/2000/svg">
<path d="M356.939 55.7408C352.547 71.8354 337.927 83 321.244 83L-179 82.9999C-199.435 82.9999 -216 66.4345 -216 45.9999L-216 -153C-216 -173.435 -199.434 -190 -179 -190L424 -190L356.939 55.7408Z" fill="#245AAB"/>
<mask id="path-2-outside-1_101_40" maskUnits="userSpaceOnUse" x="200" y="32" width="133" height="17" fill="black">
<rect fill="white" x="200" y="32" width="133" height="17"/>
<path d="M213.589 48H209.986L206.034 41.6281C205.527 40.8109 205.016 39.8176 204.502 38.6482C204.734 39.5781 204.85 40.3671 204.85 41.0152V48H201.257V33.576H205.442L208.802 38.8595C209.472 39.9092 209.979 40.832 210.324 41.6281C210.099 40.3953 209.986 39.1343 209.986 37.8451V33.576H213.589V48ZM229.348 44.5551V48H218.495V33.576H229.348V36.9046H222.838V38.9969H228.101V42.1987H222.838V44.5551H229.348ZM246.501 48H241.651L239.157 42.5474L237.667 44.6714V48H233.493V33.576H237.667V39.5358L241.651 33.576H245.624L241.978 38.849L246.501 48ZM255.761 48.2219C253.732 48.2219 252.076 47.5491 250.794 46.2036C249.519 44.8581 248.881 43.0582 248.881 40.8039C248.881 38.6482 249.491 36.8694 250.709 35.4675C251.935 34.0586 253.633 33.3541 255.803 33.3541C257.811 33.3541 259.445 34.0163 260.706 35.3407C261.974 36.6651 262.608 38.4333 262.608 40.6453C262.608 42.9349 261.97 44.77 260.695 46.1508C259.42 47.5315 257.775 48.2219 255.761 48.2219ZM255.739 44.9461C256.486 44.9461 257.022 44.6221 257.346 43.974C257.677 43.3188 257.842 42.1247 257.842 40.3917C257.842 37.8838 257.169 36.6299 255.824 36.6299C254.373 36.6299 253.647 38.0599 253.647 40.9201C253.647 43.6041 254.345 44.9461 255.739 44.9461ZM277.975 44.5974V48H265.971V45.242L272.364 36.9152H266.457V33.576H277.775V36.3763L271.572 44.5974H277.975ZM293.67 33.576V43.1286C293.67 44.9391 293.131 46.2424 292.054 47.0384C290.983 47.8274 289.584 48.2219 287.859 48.2219C286.041 48.2219 284.579 47.8415 283.473 47.0807C282.374 46.3198 281.825 45.08 281.825 43.3611V33.576H286.326V42.8433C286.326 43.5337 286.471 44.0374 286.76 44.3544C287.055 44.6714 287.524 44.8299 288.165 44.8299C288.7 44.8299 289.137 44.7172 289.475 44.4917C289.82 44.2593 290.025 43.9986 290.088 43.7098C290.159 43.421 290.194 42.8574 290.194 42.0191V33.576H293.67ZM314.11 33.576V48H309.999V37.6866L307.326 48H304.515L301.747 37.6866V48H298.429V33.576H304.209L306.301 41.2371L308.298 33.576H314.11ZM326.962 48L326.149 45.1575H322.281L321.415 48H317.822L322.281 33.576H326.962L331.475 48H326.962ZM323.032 42.0085H325.377L324.204 37.824L323.032 42.0085Z"/>
</mask>
<path d="M213.589 48H209.986L206.034 41.6281C205.527 40.8109 205.016 39.8176 204.502 38.6482C204.734 39.5781 204.85 40.3671 204.85 41.0152V48H201.257V33.576H205.442L208.802 38.8595C209.472 39.9092 209.979 40.832 210.324 41.6281C210.099 40.3953 209.986 39.1343 209.986 37.8451V33.576H213.589V48ZM229.348 44.5551V48H218.495V33.576H229.348V36.9046H222.838V38.9969H228.101V42.1987H222.838V44.5551H229.348ZM246.501 48H241.651L239.157 42.5474L237.667 44.6714V48H233.493V33.576H237.667V39.5358L241.651 33.576H245.624L241.978 38.849L246.501 48ZM255.761 48.2219C253.732 48.2219 252.076 47.5491 250.794 46.2036C249.519 44.8581 248.881 43.0582 248.881 40.8039C248.881 38.6482 249.491 36.8694 250.709 35.4675C251.935 34.0586 253.633 33.3541 255.803 33.3541C257.811 33.3541 259.445 34.0163 260.706 35.3407C261.974 36.6651 262.608 38.4333 262.608 40.6453C262.608 42.9349 261.97 44.77 260.695 46.1508C259.42 47.5315 257.775 48.2219 255.761 48.2219ZM255.739 44.9461C256.486 44.9461 257.022 44.6221 257.346 43.974C257.677 43.3188 257.842 42.1247 257.842 40.3917C257.842 37.8838 257.169 36.6299 255.824 36.6299C254.373 36.6299 253.647 38.0599 253.647 40.9201C253.647 43.6041 254.345 44.9461 255.739 44.9461ZM277.975 44.5974V48H265.971V45.242L272.364 36.9152H266.457V33.576H277.775V36.3763L271.572 44.5974H277.975ZM293.67 33.576V43.1286C293.67 44.9391 293.131 46.2424 292.054 47.0384C290.983 47.8274 289.584 48.2219 287.859 48.2219C286.041 48.2219 284.579 47.8415 283.473 47.0807C282.374 46.3198 281.825 45.08 281.825 43.3611V33.576H286.326V42.8433C286.326 43.5337 286.471 44.0374 286.76 44.3544C287.055 44.6714 287.524 44.8299 288.165 44.8299C288.7 44.8299 289.137 44.7172 289.475 44.4917C289.82 44.2593 290.025 43.9986 290.088 43.7098C290.159 43.421 290.194 42.8574 290.194 42.0191V33.576H293.67ZM314.11 33.576V48H309.999V37.6866L307.326 48H304.515L301.747 37.6866V48H298.429V33.576H304.209L306.301 41.2371L308.298 33.576H314.11ZM326.962 48L326.149 45.1575H322.281L321.415 48H317.822L322.281 33.576H326.962L331.475 48H326.962ZM323.032 42.0085H325.377L324.204 37.824L323.032 42.0085Z" fill="white"/>
<path d="M213.589 48V48.5949H214.184V48H213.589ZM209.986 48L209.48 48.3136L209.655 48.5949H209.986V48ZM206.034 41.6281L206.539 41.3145L206.539 41.3143L206.034 41.6281ZM204.502 38.6482L205.046 38.4087L203.924 38.7925L204.502 38.6482ZM204.85 48V48.5949H205.445V48H204.85ZM201.257 48H200.663V48.5949H201.257V48ZM201.257 33.576V32.9811H200.663V33.576H201.257ZM205.442 33.576L205.944 33.2567L205.769 32.9811H205.442V33.576ZM208.802 38.8595L208.3 39.1788L208.301 39.1794L208.802 38.8595ZM210.324 41.6281L209.778 41.8648L210.909 41.5211L210.324 41.6281ZM209.986 33.576V32.9811H209.391V33.576H209.986ZM213.589 33.576H214.184V32.9811H213.589V33.576ZM213.589 47.4051H209.986V48.5949H213.589V47.4051ZM210.491 47.6864L206.539 41.3145L205.528 41.9417L209.48 48.3136L210.491 47.6864ZM206.539 41.3143C206.051 40.5272 205.553 39.5602 205.046 38.4087L203.957 38.8877C204.479 40.075 205.002 41.0946 205.528 41.9418L206.539 41.3143ZM203.924 38.7925C204.15 39.6954 204.255 40.4329 204.255 41.0152H205.445C205.445 40.3013 205.318 39.4608 205.079 38.5039L203.924 38.7925ZM204.255 41.0152V48H205.445V41.0152H204.255ZM204.85 47.4051H201.257V48.5949H204.85V47.4051ZM201.852 48V33.576H200.663V48H201.852ZM201.257 34.171H205.442V32.9811H201.257V34.171ZM204.94 33.8953L208.3 39.1788L209.304 38.5402L205.944 33.2567L204.94 33.8953ZM208.301 39.1794C208.96 40.2129 209.45 41.107 209.778 41.8648L210.87 41.3914C210.508 40.5571 209.984 39.6055 209.304 38.5397L208.301 39.1794ZM210.909 41.5211C210.69 40.3245 210.581 39.0994 210.581 37.8451H209.391C209.391 39.1691 209.507 40.466 209.739 41.7351L210.909 41.5211ZM210.581 37.8451V33.576H209.391V37.8451H210.581ZM209.986 34.171H213.589V32.9811H209.986V34.171ZM212.994 33.576V48H214.184V33.576H212.994ZM229.348 44.5551H229.943V43.9602H229.348V44.5551ZM229.348 48V48.5949H229.943V48H229.348ZM218.495 48H217.9V48.5949H218.495V48ZM218.495 33.576V32.9811H217.9V33.576H218.495ZM229.348 33.576H229.943V32.9811H229.348V33.576ZM229.348 36.9046V37.4996H229.943V36.9046H229.348ZM222.838 36.9046V36.3097H222.243V36.9046H222.838ZM222.838 38.9969H222.243V39.5918H222.838V38.9969ZM228.101 38.9969H228.696V38.4019H228.101V38.9969ZM228.101 42.1987V42.7936H228.696V42.1987H228.101ZM222.838 42.1987V41.6038H222.243V42.1987H222.838ZM222.838 44.5551H222.243V45.1501H222.838V44.5551ZM228.753 44.5551V48H229.943V44.5551H228.753ZM229.348 47.4051H218.495V48.5949H229.348V47.4051ZM219.09 48V33.576H217.9V48H219.09ZM218.495 34.171H229.348V32.9811H218.495V34.171ZM228.753 33.576V36.9046H229.943V33.576H228.753ZM229.348 36.3097H222.838V37.4996H229.348V36.3097ZM222.243 36.9046V38.9969H223.433V36.9046H222.243ZM222.838 39.5918H228.101V38.4019H222.838V39.5918ZM227.506 38.9969V42.1987H228.696V38.9969H227.506ZM228.101 41.6038H222.838V42.7936H228.101V41.6038ZM222.243 42.1987V44.5551H223.433V42.1987H222.243ZM222.838 45.1501H229.348V43.9602H222.838V45.1501ZM246.501 48V48.5949H247.459L247.034 47.7364L246.501 48ZM241.651 48L241.11 48.2475L241.268 48.5949H241.651V48ZM239.157 42.5474L239.698 42.3L239.266 41.3558L238.67 42.2057L239.157 42.5474ZM237.667 44.6714L237.18 44.3297L237.072 44.4835V44.6714H237.667ZM237.667 48V48.5949H238.262V48H237.667ZM233.493 48H232.898V48.5949H233.493V48ZM233.493 33.576V32.9811H232.898V33.576H233.493ZM237.667 33.576H238.262V32.9811H237.667V33.576ZM237.667 39.5358H237.072V41.4965L238.161 39.8664L237.667 39.5358ZM241.651 33.576V32.9811H241.333L241.156 33.2454L241.651 33.576ZM245.624 33.576L246.113 33.9143L246.758 32.9811H245.624V33.576ZM241.978 38.849L241.489 38.5106L241.29 38.7986L241.445 39.1126L241.978 38.849ZM246.501 47.4051H241.651V48.5949H246.501V47.4051ZM242.192 47.7525L239.698 42.3L238.616 42.7949L241.11 48.2475L242.192 47.7525ZM238.67 42.2057L237.18 44.3297L238.154 45.0131L239.644 42.8891L238.67 42.2057ZM237.072 44.6714V48H238.262V44.6714H237.072ZM237.667 47.4051H233.493V48.5949H237.667V47.4051ZM234.088 48V33.576H232.898V48H234.088ZM233.493 34.171H237.667V32.9811H233.493V34.171ZM237.072 33.576V39.5358H238.262V33.576H237.072ZM238.161 39.8664L242.145 33.9066L241.156 33.2454L237.172 39.2052L238.161 39.8664ZM241.651 34.171H245.624V32.9811H241.651V34.171ZM245.134 33.2377L241.489 38.5106L242.468 39.1873L246.113 33.9143L245.134 33.2377ZM241.445 39.1126L245.967 48.2636L247.034 47.7364L242.512 38.5853L241.445 39.1126ZM250.794 46.2036L250.362 46.6128L250.363 46.614L250.794 46.2036ZM250.709 35.4675L250.261 35.077L250.26 35.0772L250.709 35.4675ZM260.706 35.3407L260.275 35.751L260.276 35.7521L260.706 35.3407ZM257.346 43.974L256.815 43.7056L256.813 43.7079L257.346 43.974ZM255.761 47.627C253.878 47.627 252.384 47.0094 251.225 45.7932L250.363 46.614C251.769 48.0889 253.585 48.8169 255.761 48.8169V47.627ZM251.226 45.7944C250.077 44.5822 249.476 42.9407 249.476 40.8039H248.286C248.286 43.1756 248.961 45.1339 250.362 46.6128L251.226 45.7944ZM249.476 40.8039C249.476 38.7672 250.049 37.1344 251.158 35.8578L250.26 35.0772C248.933 36.6044 248.286 38.5291 248.286 40.8039H249.476ZM251.158 35.858C252.252 34.6005 253.774 33.949 255.803 33.949V32.7591C253.492 32.7591 251.618 33.5166 250.261 35.077L251.158 35.858ZM255.803 33.949C257.665 33.949 259.138 34.5567 260.275 35.751L261.137 34.9304C259.752 33.4759 257.956 32.7591 255.803 32.7591V33.949ZM260.276 35.7521C261.417 36.9437 262.013 38.553 262.013 40.6453H263.203C263.203 38.3136 262.531 36.3865 261.136 34.9292L260.276 35.7521ZM262.013 40.6453C262.013 42.8196 261.411 44.4992 260.258 45.7471L261.132 46.5544C262.53 45.0409 263.203 43.0501 263.203 40.6453H262.013ZM260.258 45.7471C259.105 46.9964 257.623 47.627 255.761 47.627V48.8169C257.928 48.8169 259.736 48.0666 261.132 46.5544L260.258 45.7471ZM255.739 45.5411C256.2 45.5411 256.632 45.4404 257.009 45.2121C257.387 44.9831 257.674 44.6484 257.878 44.24L256.813 43.7079C256.694 43.9476 256.55 44.099 256.393 44.1941C256.235 44.2899 256.025 44.3512 255.739 44.3512V45.5411ZM257.877 44.2423C258.278 43.4482 258.437 42.1238 258.437 40.3917H257.247C257.247 42.1257 257.075 43.1894 256.815 43.7056L257.877 44.2423ZM258.437 40.3917C258.437 39.104 258.268 38.0455 257.862 37.2891C257.654 36.9019 257.378 36.5813 257.021 36.3596C256.662 36.1369 256.256 36.0349 255.824 36.0349V37.2248C256.064 37.2248 256.247 37.2796 256.393 37.3703C256.541 37.4622 256.685 37.6118 256.813 37.8516C257.08 38.3491 257.247 39.1715 257.247 40.3917H258.437ZM255.824 36.0349C255.359 36.0349 254.925 36.1511 254.545 36.4008C254.168 36.6483 253.878 37.0045 253.661 37.4332C253.234 38.2737 253.052 39.459 253.052 40.9201H254.242C254.242 39.5211 254.423 38.5612 254.722 37.9716C254.867 37.6854 255.031 37.5053 255.198 37.3953C255.362 37.2874 255.563 37.2248 255.824 37.2248V36.0349ZM253.052 40.9201C253.052 42.2943 253.227 43.4158 253.642 44.214C253.854 44.6218 254.137 44.9604 254.503 45.1953C254.872 45.4318 255.291 45.5411 255.739 45.5411V44.3512C255.49 44.3512 255.299 44.2927 255.145 44.1937C254.988 44.0931 254.835 43.9285 254.698 43.6653C254.415 43.1214 254.242 42.2299 254.242 40.9201H253.052ZM277.975 44.5974H278.57V44.0025H277.975V44.5974ZM277.975 48V48.5949H278.57V48H277.975ZM265.971 48H265.376V48.5949H265.971V48ZM265.971 45.242L265.499 44.8797L265.376 45.04V45.242H265.971ZM272.364 36.9152L272.836 37.2775L273.571 36.3202H272.364V36.9152ZM266.457 36.9152H265.862V37.5101H266.457V36.9152ZM266.457 33.576V32.9811H265.862V33.576H266.457ZM277.775 33.576H278.37V32.9811H277.775V33.576ZM277.775 36.3763L278.25 36.7346L278.37 36.5755V36.3763H277.775ZM271.572 44.5974L271.097 44.2391L270.378 45.1924H271.572V44.5974ZM277.38 44.5974V48H278.57V44.5974H277.38ZM277.975 47.4051H265.971V48.5949H277.975V47.4051ZM266.566 48V45.242H265.376V48H266.566ZM266.443 45.6043L272.836 37.2775L271.892 36.5529L265.499 44.8797L266.443 45.6043ZM272.364 36.3202H266.457V37.5101H272.364V36.3202ZM267.052 36.9152V33.576H265.862V36.9152H267.052ZM266.457 34.171H277.775V32.9811H266.457V34.171ZM277.18 33.576V36.3763H278.37V33.576H277.18ZM277.3 36.0179L271.097 44.2391L272.047 44.9558L278.25 36.7346L277.3 36.0179ZM271.572 45.1924H277.975V44.0025H271.572V45.1924ZM293.67 33.576H294.265V32.9811H293.67V33.576ZM292.054 47.0384L292.407 47.5174L292.407 47.517L292.054 47.0384ZM283.473 47.0807L283.135 47.5698L283.136 47.5708L283.473 47.0807ZM281.825 33.576V32.9811H281.23V33.576H281.825ZM286.326 33.576H286.921V32.9811H286.326V33.576ZM286.76 44.3544L286.32 44.7551L286.325 44.7603L286.76 44.3544ZM289.475 44.4917L289.805 44.9868L289.808 44.9852L289.475 44.4917ZM290.088 43.7098L289.51 43.5688L289.507 43.5822L290.088 43.7098ZM290.194 33.576V32.9811H289.599V33.576H290.194ZM293.075 33.576V43.1286H294.265V33.576H293.075ZM293.075 43.1286C293.075 44.822 292.576 45.9127 291.7 46.5598L292.407 47.517C293.687 46.572 294.265 45.0561 294.265 43.1286H293.075ZM291.701 46.5594C290.759 47.2534 289.495 47.627 287.859 47.627V48.8169C289.674 48.8169 291.207 48.4014 292.407 47.5174L291.701 46.5594ZM287.859 47.627C286.12 47.627 284.788 47.2628 283.81 46.5905L283.136 47.5708C284.371 48.4202 285.962 48.8169 287.859 48.8169V47.627ZM283.812 46.5915C282.919 45.9731 282.42 44.947 282.42 43.3611H281.23C281.23 45.213 281.83 46.6666 283.135 47.5698L283.812 46.5915ZM282.42 43.3611V33.576H281.23V43.3611H282.42ZM281.825 34.171H286.326V32.9811H281.825V34.171ZM285.731 33.576V42.8433H286.921V33.576H285.731ZM285.731 42.8433C285.731 43.5963 285.885 44.2784 286.32 44.7551L287.199 43.9537C287.056 43.7963 286.921 43.471 286.921 42.8433H285.731ZM286.325 44.7603C286.778 45.2456 287.438 45.4248 288.165 45.4248V44.2349C287.61 44.2349 287.333 44.0971 287.194 43.9484L286.325 44.7603ZM288.165 45.4248C288.781 45.4248 289.343 45.2951 289.805 44.9868L289.145 43.9967C288.931 44.1392 288.62 44.2349 288.165 44.2349V45.4248ZM289.808 44.9852C290.228 44.7023 290.562 44.3273 290.669 43.8373L289.507 43.5822C289.488 43.67 289.413 43.8162 289.143 43.9983L289.808 44.9852ZM290.666 43.8508C290.756 43.482 290.789 42.8483 290.789 42.0191H289.599C289.599 42.8664 289.561 43.3599 289.51 43.5688L290.666 43.8508ZM290.789 42.0191V33.576H289.599V42.0191H290.789ZM290.194 34.171H293.67V32.9811H290.194V34.171ZM314.11 33.576H314.705V32.9811H314.11V33.576ZM314.11 48V48.5949H314.705V48H314.11ZM309.999 48H309.404V48.5949H309.999V48ZM309.999 37.6866H310.594L309.423 37.5373L309.999 37.6866ZM307.326 48V48.5949H307.786L307.902 48.1493L307.326 48ZM304.515 48L303.941 48.1542L304.059 48.5949H304.515V48ZM301.747 37.6866L302.321 37.5323L301.152 37.6866H301.747ZM301.747 48V48.5949H302.341V48H301.747ZM298.429 48H297.834V48.5949H298.429V48ZM298.429 33.576V32.9811H297.834V33.576H298.429ZM304.209 33.576L304.783 33.4193L304.663 32.9811H304.209V33.576ZM306.301 41.2371L305.727 41.3938L306.314 43.5443L306.877 41.3872L306.301 41.2371ZM308.298 33.576V32.9811H307.838L307.722 33.4259L308.298 33.576ZM313.515 33.576V48H314.705V33.576H313.515ZM314.11 47.4051H309.999V48.5949H314.11V47.4051ZM310.594 48V37.6866H309.404V48H310.594ZM309.423 37.5373L306.75 47.8507L307.902 48.1493L310.575 37.8359L309.423 37.5373ZM307.326 47.4051H304.515V48.5949H307.326V47.4051ZM305.09 47.8458L302.321 37.5323L301.172 37.8408L303.941 48.1542L305.09 47.8458ZM301.152 37.6866V48H302.341V37.6866H301.152ZM301.747 47.4051H298.429V48.5949H301.747V47.4051ZM299.023 48V33.576H297.834V48H299.023ZM298.429 34.171H304.209V32.9811H298.429V34.171ZM303.635 33.7327L305.727 41.3938L306.875 41.0804L304.783 33.4193L303.635 33.7327ZM306.877 41.3872L308.874 33.7261L307.722 33.4259L305.725 41.087L306.877 41.3872ZM308.298 34.171H314.11V32.9811H308.298V34.171ZM326.962 48L326.39 48.1637L326.514 48.5949H326.962V48ZM326.149 45.1575L326.721 44.9937L326.597 44.5625H326.149V45.1575ZM322.281 45.1575V44.5625H321.841L321.712 44.984L322.281 45.1575ZM321.415 48V48.5949H321.855L321.984 48.1735L321.415 48ZM317.822 48L317.254 47.8243L317.015 48.5949H317.822V48ZM322.281 33.576V32.9811H321.842L321.713 33.4003L322.281 33.576ZM326.962 33.576L327.53 33.3984L327.4 32.9811H326.962V33.576ZM331.475 48V48.5949H332.284L332.042 47.8224L331.475 48ZM323.032 42.0085L322.459 41.8479L322.247 42.6034H323.032V42.0085ZM325.377 42.0085V42.6034H326.162L325.95 41.8479L325.377 42.0085ZM324.204 37.8239L324.777 37.6634L324.204 35.6196L323.632 37.6634L324.204 37.8239ZM327.534 47.8363L326.721 44.9937L325.577 45.3212L326.39 48.1637L327.534 47.8363ZM326.149 44.5625H322.281V45.7524H326.149V44.5625ZM321.712 44.984L320.846 47.8265L321.984 48.1735L322.85 45.3309L321.712 44.984ZM321.415 47.4051H317.822V48.5949H321.415V47.4051ZM318.39 48.1757L322.85 33.7517L321.713 33.4003L317.254 47.8243L318.39 48.1757ZM322.281 34.171H326.962V32.9811H322.281V34.171ZM326.395 33.7536L330.907 48.1776L332.042 47.8224L327.53 33.3984L326.395 33.7536ZM331.475 47.4051H326.962V48.5949H331.475V47.4051ZM323.032 42.6034H325.377V41.4135H323.032V42.6034ZM325.95 41.8479L324.777 37.6634L323.632 37.9845L324.805 42.1691L325.95 41.8479ZM323.632 37.6634L322.459 41.8479L323.604 42.1691L324.777 37.9845L323.632 37.6634Z" fill="white" mask="url(#path-2-outside-1_101_40)"/>
</svg>
