<svg width="133" height="17" viewBox="0 0 133 17" fill="none" xmlns="http://www.w3.org/2000/svg">
<mask id="path-1-outside-1_0_123" maskUnits="userSpaceOnUse" x="0" y="0" width="133" height="17" fill="black">
<rect fill="white" width="133" height="17"/>
<path d="M13.5892 16H9.98584L6.03377 9.62808C5.52656 8.8109 5.01582 7.8176 4.50155 6.64818C4.73403 7.57808 4.85027 8.36708 4.85027 9.01519V16H1.25748V1.576H5.44202L8.80234 6.85952C9.47158 7.90918 9.9788 8.83203 10.324 9.62808C10.0986 8.39526 9.98584 7.13426 9.98584 5.84508V1.576H13.5892V16ZM29.3476 12.5551V16H18.4953V1.576H29.3476V4.90462H22.8383V6.99689H28.1007V10.1987H22.8383V12.5551H29.3476ZM46.5008 16H41.6506L39.1568 10.5474L37.6668 12.6714V16H33.4928V1.576H37.6668V7.53581L41.6506 1.576H45.6238L41.9782 6.84895L46.5008 16ZM55.7605 16.2219C53.7317 16.2219 52.0762 15.5491 50.794 14.2036C49.5189 12.8581 48.8814 11.0582 48.8814 8.80385C48.8814 6.64818 49.4908 4.8694 50.7095 3.4675C51.9353 2.05857 53.633 1.3541 55.8028 1.3541C57.8105 1.3541 59.4449 2.0163 60.7059 3.3407C61.9739 4.6651 62.608 6.43332 62.608 8.64535C62.608 10.9349 61.9704 12.77 60.6953 14.1508C59.4202 15.5315 57.7753 16.2219 55.7605 16.2219ZM55.7394 12.9461C56.4861 12.9461 57.0215 12.6221 57.3456 11.974C57.6767 11.3188 57.8422 10.1247 57.8422 8.39174C57.8422 5.88383 57.1695 4.62988 55.8239 4.62988C54.3727 4.62988 53.6471 6.05995 53.6471 8.92009C53.6471 11.6041 54.3445 12.9461 55.7394 12.9461ZM77.9754 12.5974V16H65.9712V13.242L72.3643 4.91519H66.4573V1.576H77.7746V4.37627L71.5718 12.5974H77.9754ZM93.6704 1.576V11.1286C93.6704 12.9391 93.1315 14.2424 92.0536 15.0384C90.9828 15.8274 89.5845 16.2219 87.8585 16.2219C86.041 16.2219 84.5792 15.8415 83.4732 15.0807C82.3742 14.3198 81.8247 13.08 81.8247 11.3611V1.576H86.3263V10.8433C86.3263 11.5337 86.4707 12.0374 86.7595 12.3544C87.0554 12.6714 87.5239 12.8299 88.165 12.8299C88.7004 12.8299 89.1371 12.7172 89.4753 12.4917C89.8205 12.2593 90.0248 11.9986 90.0882 11.7098C90.1586 11.421 90.1938 10.8574 90.1938 10.0191V1.576H93.6704ZM114.11 1.576V16H109.999V5.68658L107.326 16H104.515L101.747 5.68658V16H98.4285V1.576H104.209L106.301 9.2371L108.298 1.576H114.11ZM126.962 16L126.149 13.1575H122.281L121.415 16H117.822L122.281 1.576H126.962L131.475 16H126.962ZM123.032 10.0085H125.377L124.204 5.82395L123.032 10.0085Z"/>
</mask>
<path d="M13.5892 16H9.98584L6.03377 9.62808C5.52656 8.8109 5.01582 7.8176 4.50155 6.64818C4.73403 7.57808 4.85027 8.36708 4.85027 9.01519V16H1.25748V1.576H5.44202L8.80234 6.85952C9.47158 7.90918 9.9788 8.83203 10.324 9.62808C10.0986 8.39526 9.98584 7.13426 9.98584 5.84508V1.576H13.5892V16ZM29.3476 12.5551V16H18.4953V1.576H29.3476V4.90462H22.8383V6.99689H28.1007V10.1987H22.8383V12.5551H29.3476ZM46.5008 16H41.6506L39.1568 10.5474L37.6668 12.6714V16H33.4928V1.576H37.6668V7.53581L41.6506 1.576H45.6238L41.9782 6.84895L46.5008 16ZM55.7605 16.2219C53.7317 16.2219 52.0762 15.5491 50.794 14.2036C49.5189 12.8581 48.8814 11.0582 48.8814 8.80385C48.8814 6.64818 49.4908 4.8694 50.7095 3.4675C51.9353 2.05857 53.633 1.3541 55.8028 1.3541C57.8105 1.3541 59.4449 2.0163 60.7059 3.3407C61.9739 4.6651 62.608 6.43332 62.608 8.64535C62.608 10.9349 61.9704 12.77 60.6953 14.1508C59.4202 15.5315 57.7753 16.2219 55.7605 16.2219ZM55.7394 12.9461C56.4861 12.9461 57.0215 12.6221 57.3456 11.974C57.6767 11.3188 57.8422 10.1247 57.8422 8.39174C57.8422 5.88383 57.1695 4.62988 55.8239 4.62988C54.3727 4.62988 53.6471 6.05995 53.6471 8.92009C53.6471 11.6041 54.3445 12.9461 55.7394 12.9461ZM77.9754 12.5974V16H65.9712V13.242L72.3643 4.91519H66.4573V1.576H77.7746V4.37627L71.5718 12.5974H77.9754ZM93.6704 1.576V11.1286C93.6704 12.9391 93.1315 14.2424 92.0536 15.0384C90.9828 15.8274 89.5845 16.2219 87.8585 16.2219C86.041 16.2219 84.5792 15.8415 83.4732 15.0807C82.3742 14.3198 81.8247 13.08 81.8247 11.3611V1.576H86.3263V10.8433C86.3263 11.5337 86.4707 12.0374 86.7595 12.3544C87.0554 12.6714 87.5239 12.8299 88.165 12.8299C88.7004 12.8299 89.1371 12.7172 89.4753 12.4917C89.8205 12.2593 90.0248 11.9986 90.0882 11.7098C90.1586 11.421 90.1938 10.8574 90.1938 10.0191V1.576H93.6704ZM114.11 1.576V16H109.999V5.68658L107.326 16H104.515L101.747 5.68658V16H98.4285V1.576H104.209L106.301 9.2371L108.298 1.576H114.11ZM126.962 16L126.149 13.1575H122.281L121.415 16H117.822L122.281 1.576H126.962L131.475 16H126.962ZM123.032 10.0085H125.377L124.204 5.82395L123.032 10.0085Z" fill="white"/>
<path d="M13.5892 16V16.5949H14.1841V16H13.5892ZM9.98584 16L9.48025 16.3136L9.65476 16.5949H9.98584V16ZM6.03377 9.62808L6.53937 9.31449L6.53927 9.31433L6.03377 9.62808ZM4.50155 6.64818L5.04617 6.40868L3.92437 6.79247L4.50155 6.64818ZM4.85027 16V16.5949H5.44522V16H4.85027ZM1.25748 16H0.662527V16.5949H1.25748V16ZM1.25748 1.576V0.981055H0.662527V1.576H1.25748ZM5.44202 1.576L5.94404 1.25672L5.76872 0.981055H5.44202V1.576ZM8.80234 6.85952L8.30032 7.1788L8.30068 7.17937L8.80234 6.85952ZM10.324 9.62808L9.77815 9.86477L10.9092 9.52106L10.324 9.62808ZM9.98584 1.576V0.981055H9.39089V1.576H9.98584ZM13.5892 1.576H14.1841V0.981055H13.5892V1.576ZM13.5892 15.4051H9.98584V16.5949H13.5892V15.4051ZM10.4914 15.6864L6.53937 9.31449L5.52818 9.94167L9.48025 16.3136L10.4914 15.6864ZM6.53927 9.31433C6.05071 8.5272 5.55257 7.56022 5.04617 6.40868L3.95694 6.88768C4.47906 8.07497 5.00241 9.09459 5.52828 9.94184L6.53927 9.31433ZM3.92437 6.79247C4.1501 7.6954 4.25532 8.43289 4.25532 9.01519H5.44522C5.44522 8.30127 5.31796 7.46075 5.07874 6.50388L3.92437 6.79247ZM4.25532 9.01519V16H5.44522V9.01519H4.25532ZM4.85027 15.4051H1.25748V16.5949H4.85027V15.4051ZM1.85243 16V1.576H0.662527V16H1.85243ZM1.25748 2.17095H5.44202V0.981055H1.25748V2.17095ZM4.94 1.89529L8.30032 7.1788L9.30435 6.54024L5.94404 1.25672L4.94 1.89529ZM8.30068 7.17937C8.95963 8.21288 9.44955 9.10699 9.77815 9.86477L10.8698 9.39139C10.508 8.55707 9.98354 7.60548 9.30399 6.53967L8.30068 7.17937ZM10.9092 9.52106C10.6904 8.32455 10.5808 7.0994 10.5808 5.84508H9.39089C9.39089 7.16913 9.50667 8.46597 9.73874 9.7351L10.9092 9.52106ZM10.5808 5.84508V1.576H9.39089V5.84508H10.5808ZM9.98584 2.17095H13.5892V0.981055H9.98584V2.17095ZM12.9943 1.576V16H14.1841V1.576H12.9943ZM29.3476 12.5551H29.9426V11.9602H29.3476V12.5551ZM29.3476 16V16.5949H29.9426V16H29.3476ZM18.4953 16H17.9003V16.5949H18.4953V16ZM18.4953 1.576V0.981055H17.9003V1.576H18.4953ZM29.3476 1.576H29.9426V0.981055H29.3476V1.576ZM29.3476 4.90462V5.49957H29.9426V4.90462H29.3476ZM22.8383 4.90462V4.30967H22.2434V4.90462H22.8383ZM22.8383 6.99689H22.2434V7.59184H22.8383V6.99689ZM28.1007 6.99689H28.6956V6.40194H28.1007V6.99689ZM28.1007 10.1987V10.7936H28.6956V10.1987H28.1007ZM22.8383 10.1987V9.60375H22.2434V10.1987H22.8383ZM22.8383 12.5551H22.2434V13.1501H22.8383V12.5551ZM28.7527 12.5551V16H29.9426V12.5551H28.7527ZM29.3476 15.4051H18.4953V16.5949H29.3476V15.4051ZM19.0902 16V1.576H17.9003V16H19.0902ZM18.4953 2.17095H29.3476V0.981055H18.4953V2.17095ZM28.7527 1.576V4.90462H29.9426V1.576H28.7527ZM29.3476 4.30967H22.8383V5.49957H29.3476V4.30967ZM22.2434 4.90462V6.99689H23.4333V4.90462H22.2434ZM22.8383 7.59184H28.1007V6.40194H22.8383V7.59184ZM27.5057 6.99689V10.1987H28.6956V6.99689H27.5057ZM28.1007 9.60375H22.8383V10.7936H28.1007V9.60375ZM22.2434 10.1987V12.5551H23.4333V10.1987H22.2434ZM22.8383 13.1501H29.3476V11.9602H22.8383V13.1501ZM46.5009 16V16.5949H47.4585L47.0342 15.7364L46.5009 16ZM41.6506 16L41.1095 16.2475L41.2685 16.5949H41.6506V16ZM39.1568 10.5474L39.6978 10.3L39.266 9.35575L38.6697 10.2057L39.1568 10.5474ZM37.6668 12.6714L37.1798 12.3297L37.0719 12.4835V12.6714H37.6668ZM37.6668 16V16.5949H38.2618V16H37.6668ZM33.4928 16H32.8979V16.5949H33.4928V16ZM33.4928 1.576V0.981055H32.8979V1.576H33.4928ZM37.6668 1.576H38.2618V0.981055H37.6668V1.576ZM37.6668 7.53581H37.0719V9.49646L38.1614 7.86643L37.6668 7.53581ZM41.6506 1.576V0.981055H41.3326L41.156 1.24538L41.6506 1.576ZM45.6238 1.576L46.1132 1.91435L46.7584 0.981055H45.6238V1.576ZM41.9782 6.84895L41.4888 6.51061L41.2896 6.79864L41.4448 7.11255L41.9782 6.84895ZM46.5009 15.4051H41.6506V16.5949H46.5009V15.4051ZM42.1916 15.7525L39.6978 10.3L38.6157 10.7949L41.1095 16.2475L42.1916 15.7525ZM38.6697 10.2057L37.1798 12.3297L38.1539 13.0131L39.6438 10.8891L38.6697 10.2057ZM37.0719 12.6714V16H38.2618V12.6714H37.0719ZM37.6668 15.4051H33.4928V16.5949H37.6668V15.4051ZM34.0878 16V1.576H32.8979V16H34.0878ZM33.4928 2.17095H37.6668V0.981055H33.4928V2.17095ZM37.0719 1.576V7.53581H38.2618V1.576H37.0719ZM38.1614 7.86643L42.1452 1.90663L41.156 1.24538L37.1722 7.20518L38.1614 7.86643ZM41.6506 2.17095H45.6238V0.981055H41.6506V2.17095ZM45.1344 1.23766L41.4888 6.51061L42.4675 7.1873L46.1132 1.91435L45.1344 1.23766ZM41.4448 7.11255L45.9675 16.2636L47.0342 15.7364L42.5115 6.58535L41.4448 7.11255ZM50.794 14.2036L50.3622 14.6128L50.3633 14.614L50.794 14.2036ZM50.7095 3.4675L50.2606 3.077L50.2605 3.07717L50.7095 3.4675ZM60.7059 3.3407L60.275 3.75095L60.2762 3.75215L60.7059 3.3407ZM57.3456 11.974L56.8146 11.7056L56.8134 11.7079L57.3456 11.974ZM55.7605 15.627C53.8779 15.627 52.3837 15.0094 51.2247 13.7932L50.3633 14.614C51.7686 16.0889 53.5854 16.8169 55.7605 16.8169V15.627ZM51.2259 13.7944C50.0772 12.5822 49.4763 10.9407 49.4763 8.80385H48.2864C48.2864 11.1756 48.9607 13.1339 50.3622 14.6128L51.2259 13.7944ZM49.4763 8.80385C49.4763 6.76725 50.0487 5.13439 51.1585 3.85784L50.2605 3.07717C48.9328 4.60441 48.2864 6.52911 48.2864 8.80385H49.4763ZM51.1583 3.85801C52.2524 2.60052 53.7744 1.94905 55.8028 1.94905V0.759147C53.4917 0.759147 51.6182 1.51661 50.2606 3.077L51.1583 3.85801ZM55.8028 1.94905C57.6653 1.94905 59.1379 2.5567 60.275 3.75095L61.1368 2.93045C59.7519 1.47589 57.9557 0.759147 55.8028 0.759147V1.94905ZM60.2762 3.75215C61.417 4.94372 62.013 6.55304 62.013 8.64535H63.2029C63.2029 6.31359 62.5309 4.38648 61.1356 2.92925L60.2762 3.75215ZM62.013 8.64535C62.013 10.8196 61.4107 12.4992 60.2582 13.7471L61.1324 14.5544C62.5301 13.0409 63.2029 11.0501 63.2029 8.64535H62.013ZM60.2582 13.7471C59.1046 14.9964 57.6227 15.627 55.7605 15.627V16.8169C57.9279 16.8169 59.7359 16.0666 61.1324 14.5544L60.2582 13.7471ZM55.7394 13.5411C56.2002 13.5411 56.6319 13.4404 57.0091 13.2121C57.3873 12.9831 57.6735 12.6484 57.8777 12.24L56.8134 11.7079C56.6936 11.9476 56.5501 12.099 56.3929 12.1941C56.2347 12.2899 56.0253 12.3512 55.7394 12.3512V13.5411ZM57.8766 12.2423C58.2779 11.4482 58.4372 10.1238 58.4372 8.39174H57.2473C57.2473 10.1257 57.0754 11.1894 56.8146 11.7056L57.8766 12.2423ZM58.4372 8.39174C58.4372 7.10403 58.2678 6.04553 57.8619 5.28907C57.6542 4.90194 57.3777 4.58132 57.0209 4.35964C56.6623 4.13685 56.2562 4.03493 55.8239 4.03493V5.22482C56.0644 5.22482 56.247 5.27964 56.393 5.37035C56.5407 5.46215 56.6847 5.61176 56.8134 5.85162C57.0803 6.3491 57.2473 7.17154 57.2473 8.39174H58.4372ZM55.8239 4.03493C55.3588 4.03493 54.9249 4.15111 54.5449 4.40077C54.1682 4.64826 53.8783 5.00446 53.6608 5.43323C53.2343 6.27368 53.0522 7.45897 53.0522 8.92009H54.2421C54.2421 7.52107 54.4227 6.56125 54.7219 5.97163C54.8671 5.68536 55.0308 5.50529 55.1982 5.39526C55.3624 5.2874 55.5635 5.22482 55.8239 5.22482V4.03493ZM53.0522 8.92009C53.0522 10.2943 53.2275 11.4158 53.6423 12.214C53.8542 12.6218 54.1366 12.9604 54.5028 13.1953C54.8716 13.4318 55.2912 13.5411 55.7394 13.5411V12.3512C55.4902 12.3512 55.2995 12.2927 55.1452 12.1937C54.9883 12.0931 54.8349 11.9285 54.6981 11.6653C54.4155 11.1214 54.2421 10.2299 54.2421 8.92009H53.0522ZM77.9754 12.5974H78.5703V12.0025H77.9754V12.5974ZM77.9754 16V16.5949H78.5703V16H77.9754ZM65.9712 16H65.3763V16.5949H65.9712V16ZM65.9712 13.242L65.4993 12.8797L65.3763 13.04V13.242H65.9712ZM72.3643 4.91519L72.8362 5.2775L73.5711 4.32024H72.3643V4.91519ZM66.4573 4.91519H65.8624V5.51013H66.4573V4.91519ZM66.4573 1.576V0.981055H65.8624V1.576H66.4573ZM77.7746 1.576H78.3696V0.981055H77.7746V1.576ZM77.7746 4.37627L78.2495 4.7346L78.3696 4.57553V4.37627H77.7746ZM71.5718 12.5974L71.0968 12.2391L70.3776 13.1924H71.5718V12.5974ZM77.3804 12.5974V16H78.5703V12.5974H77.3804ZM77.9754 15.4051H65.9712V16.5949H77.9754V15.4051ZM66.5662 16V13.242H65.3763V16H66.5662ZM66.4431 13.6043L72.8362 5.2775L71.8924 4.55287L65.4993 12.8797L66.4431 13.6043ZM72.3643 4.32024H66.4573V5.51013H72.3643V4.32024ZM67.0523 4.91519V1.576H65.8624V4.91519H67.0523ZM66.4573 2.17095H77.7746V0.981055H66.4573V2.17095ZM77.1797 1.576V4.37627H78.3696V1.576H77.1797ZM77.2997 4.01793L71.0968 12.2391L72.0467 12.9558L78.2495 4.7346L77.2997 4.01793ZM71.5718 13.1924H77.9754V12.0025H71.5718V13.1924ZM93.6704 1.576H94.2653V0.981055H93.6704V1.576ZM92.0536 15.0384L92.4065 15.5174L92.4071 15.517L92.0536 15.0384ZM83.4732 15.0807L83.1345 15.5698L83.136 15.5708L83.4732 15.0807ZM81.8247 1.576V0.981055H81.2298V1.576H81.8247ZM86.3263 1.576H86.9212V0.981055H86.3263V1.576ZM86.7595 12.3544L86.3197 12.7551L86.3246 12.7603L86.7595 12.3544ZM89.4753 12.4917L89.8053 12.9868L89.8076 12.9852L89.4753 12.4917ZM90.0882 11.7098L89.51 11.5688L89.507 11.5822L90.0882 11.7098ZM90.1938 1.576V0.981055H89.5989V1.576H90.1938ZM93.0754 1.576V11.1286H94.2653V1.576H93.0754ZM93.0754 11.1286C93.0754 12.822 92.5764 13.9127 91.7002 14.5598L92.4071 15.517C93.6865 14.572 94.2653 13.0561 94.2653 11.1286H93.0754ZM91.7007 14.5594C90.7589 15.2534 89.4953 15.627 87.8585 15.627V16.8169C89.6737 16.8169 91.2068 16.4014 92.4065 15.5174L91.7007 14.5594ZM87.8585 15.627C86.1197 15.627 84.7877 15.2628 83.8104 14.5905L83.136 15.5708C84.3708 16.4202 85.9623 16.8169 87.8585 16.8169V15.627ZM83.8119 14.5915C82.9185 13.9731 82.4197 12.947 82.4197 11.3611H81.2298C81.2298 13.213 81.8299 14.6666 83.1345 15.5698L83.8119 14.5915ZM82.4197 11.3611V1.576H81.2298V11.3611H82.4197ZM81.8247 2.17095H86.3263V0.981055H81.8247V2.17095ZM85.7313 1.576V10.8433H86.9212V1.576H85.7313ZM85.7313 10.8433C85.7313 11.5963 85.8855 12.2784 86.3198 12.7551L87.1993 11.9537C87.0559 11.7963 86.9212 11.471 86.9212 10.8433H85.7313ZM86.3246 12.7603C86.7776 13.2456 87.4382 13.4248 88.165 13.4248V12.2349C87.6095 12.2349 87.3333 12.0971 87.1945 11.9484L86.3246 12.7603ZM88.165 13.4248C88.7811 13.4248 89.3428 13.2951 89.8053 12.9868L89.1452 11.9967C88.9315 12.1392 88.6196 12.2349 88.165 12.2349V13.4248ZM89.8076 12.9852C90.2277 12.7023 90.5617 12.3273 90.6693 11.8373L89.507 11.5822C89.4878 11.67 89.4132 11.8162 89.1429 11.9983L89.8076 12.9852ZM90.6662 11.8508C90.7561 11.482 90.7888 10.8483 90.7888 10.0191H89.5989C89.5989 10.8664 89.5611 11.3599 89.5102 11.5688L90.6662 11.8508ZM90.7888 10.0191V1.576H89.5989V10.0191H90.7888ZM90.1938 2.17095H93.6704V0.981055H90.1938V2.17095ZM114.11 1.576H114.705V0.981055H114.11V1.576ZM114.11 16V16.5949H114.705V16H114.11ZM109.999 16H109.404V16.5949H109.999V16ZM109.999 5.68658H110.594L109.423 5.53729L109.999 5.68658ZM107.326 16V16.5949H107.786L107.902 16.1493L107.326 16ZM104.515 16L103.941 16.1542L104.059 16.5949H104.515V16ZM101.747 5.68658L102.321 5.53233L101.152 5.68658H101.747ZM101.747 16V16.5949H102.341V16H101.747ZM98.4285 16H97.8336V16.5949H98.4285V16ZM98.4285 1.576V0.981055H97.8336V1.576H98.4285ZM104.209 1.576L104.783 1.41926L104.663 0.981055H104.209V1.576ZM106.301 9.2371L105.727 9.39384L106.314 11.5443L106.877 9.38718L106.301 9.2371ZM108.298 1.576V0.981055H107.838L107.722 1.42592L108.298 1.576ZM113.515 1.576V16H114.705V1.576H113.515ZM114.11 15.4051H109.999V16.5949H114.11V15.4051ZM110.594 16V5.68658H109.404V16H110.594ZM109.423 5.53729L106.75 15.8507L107.902 16.1493L110.575 5.83587L109.423 5.53729ZM107.326 15.4051H104.515V16.5949H107.326V15.4051ZM105.09 15.8458L102.321 5.53233L101.172 5.84083L103.941 16.1542L105.09 15.8458ZM101.152 5.68658V16H102.341V5.68658H101.152ZM101.747 15.4051H98.4285V16.5949H101.747V15.4051ZM99.0235 16V1.576H97.8336V16H99.0235ZM98.4285 2.17095H104.209V0.981055H98.4285V2.17095ZM103.635 1.73275L105.727 9.39384L106.875 9.08036L104.783 1.41926L103.635 1.73275ZM106.877 9.38718L108.874 1.72609L107.722 1.42592L105.725 9.08702L106.877 9.38718ZM108.298 2.17095H114.11V0.981055H108.298V2.17095ZM126.962 16L126.39 16.1637L126.514 16.5949H126.962V16ZM126.149 13.1575L126.721 12.9937L126.597 12.5625H126.149V13.1575ZM122.281 13.1575V12.5625H121.841L121.712 12.984L122.281 13.1575ZM121.415 16V16.5949H121.855L121.984 16.1735L121.415 16ZM117.822 16L117.254 15.8243L117.015 16.5949H117.822V16ZM122.281 1.576V0.981055H121.842L121.713 1.40028L122.281 1.576ZM126.962 1.576L127.53 1.39838L127.4 0.981055H126.962V1.576ZM131.475 16V16.5949H132.284L132.042 15.8224L131.475 16ZM123.032 10.0085L122.459 9.84792L122.247 10.6034H123.032V10.0085ZM125.377 10.0085V10.6034H126.162L125.95 9.84792L125.377 10.0085ZM124.204 5.82395L124.777 5.66337L124.204 3.61962L123.632 5.66337L124.204 5.82395ZM127.534 15.8363L126.721 12.9937L125.577 13.3212L126.39 16.1637L127.534 15.8363ZM126.149 12.5625H122.281V13.7524H126.149V12.5625ZM121.712 12.984L120.846 15.8265L121.984 16.1735L122.85 13.3309L121.712 12.984ZM121.415 15.4051H117.822V16.5949H121.415V15.4051ZM118.39 16.1757L122.85 1.75173L121.713 1.40028L117.254 15.8243L118.39 16.1757ZM122.281 2.17095H126.962V0.981055H122.281V2.17095ZM126.395 1.75363L130.907 16.1776L132.042 15.8224L127.53 1.39838L126.395 1.75363ZM131.475 15.4051H126.962V16.5949H131.475V15.4051ZM123.032 10.6034H125.377V9.41354H123.032V10.6034ZM125.95 9.84792L124.777 5.66337L123.632 5.98453L124.805 10.1691L125.95 9.84792ZM123.632 5.66337L122.459 9.84792L123.604 10.1691L124.777 5.98453L123.632 5.66337Z" fill="white" mask="url(#path-1-outside-1_0_123)"/>
</svg>
